# xmcd CD database file
#
# Track frame offsets:
#	150
#	19526
#	37324
#	60333
#	82399
#	103892
#	126044
#	148266
#	168703
#	188407
#	209290
#	229797
#	251453
#	272189
#
# Disc length: 3912 seconds
#
# Revision: 0
# Processed by: cddbd v1.5.2PL0 Copyright (c) Steve Scherf et al.
# Submitted via: CDex 1.51
#
DISCID=cd0f460e
DTITLE=Frank Doerr - Merlin's Magic - Reiki Elixier
DYEAR=2007
DGENRE=New Age
TTITLE0=Open the Door
TTITLE1=The Light
TTITLE2=The Love
TTITLE3=A Space of Peace
TTITLE4=Universal Harmony
TTITLE5=Flowing Energy
TTITLE6=Deep Relaxation
TTITLE7=The Power of Meditation
TTITLE8=Heavenly Spheres
TTITLE9=Hapiness and Joy
TTITLE10=The Gentle Touch
TTITLE11=The Breath of Life
TTITLE12=A New Born Day
TTITLE13=The Healing Energy
EXTD=YEAR: 2007
EXTT0=
EXTT1=
EXTT2=
EXTT3=
EXTT4=
EXTT5=
EXTT6=
EXTT7=
EXTT8=
EXTT9=
EXTT10=
EXTT11=
EXTT12=
EXTT13=
PLAYORDER=
